<mxfile host="app.diagrams.net" modified="2023-05-10T14:01:33.704Z" agent="Mozilla/5.0 (Windows NT 10.0; Win64; x64) AppleWebKit/537.36 (KHTML, like Gecko) Chrome/112.0.0.0 Safari/537.36" etag="yp43hbnCDDUx8InSjNN2" version="21.2.7" type="github">
  <diagram name="Page-1" id="e7e014a7-5840-1c2e-5031-d8a46d1fe8dd">
    <mxGraphModel dx="1354" dy="1571" grid="1" gridSize="10" guides="1" tooltips="1" connect="1" arrows="1" fold="1" page="1" pageScale="1" pageWidth="1169" pageHeight="826" background="none" math="0" shadow="0">
      <root>
        <mxCell id="0" />
        <mxCell id="1" parent="0" />
        <mxCell id="iTRQFy2choHZ9Wb9lK1U-41" value="sistemaStore" style="shape=umlFrame;whiteSpace=wrap;html=1;rounded=0;shadow=0;comic=0;labelBackgroundColor=none;strokeWidth=1;fontFamily=Verdana;fontSize=10;align=center;width=135;height=20;" vertex="1" parent="1">
          <mxGeometry x="80" y="-480" width="1000" height="1540" as="geometry" />
        </mxCell>
        <mxCell id="iTRQFy2choHZ9Wb9lK1U-77" value="Categoria" style="swimlane;fontStyle=1;align=center;verticalAlign=top;childLayout=stackLayout;horizontal=1;startSize=26;horizontalStack=0;resizeParent=1;resizeParentMax=0;resizeLast=0;collapsible=1;marginBottom=0;whiteSpace=wrap;html=1;" vertex="1" parent="1">
          <mxGeometry x="600" y="70" width="440" height="370" as="geometry" />
        </mxCell>
        <mxCell id="iTRQFy2choHZ9Wb9lK1U-78" value="- id: integer (PK)" style="text;html=1;strokeColor=none;fillColor=none;align=left;verticalAlign=top;spacingLeft=4;spacingRight=4;whiteSpace=wrap;overflow=hidden;rotatable=0;points=[[0,0.5],[1,0.5]];portConstraint=eastwest;" vertex="1" parent="iTRQFy2choHZ9Wb9lK1U-77">
          <mxGeometry y="26" width="440" height="26" as="geometry" />
        </mxCell>
        <mxCell id="iTRQFy2choHZ9Wb9lK1U-79" value="-&amp;nbsp;nome: string" style="text;html=1;strokeColor=none;fillColor=none;align=left;verticalAlign=top;spacingLeft=4;spacingRight=4;whiteSpace=wrap;overflow=hidden;rotatable=0;points=[[0,0.5],[1,0.5]];portConstraint=eastwest;" vertex="1" parent="iTRQFy2choHZ9Wb9lK1U-77">
          <mxGeometry y="52" width="440" height="26" as="geometry" />
        </mxCell>
        <mxCell id="iTRQFy2choHZ9Wb9lK1U-80" value="-&amp;nbsp;created_at: datetime" style="text;html=1;strokeColor=none;fillColor=none;align=left;verticalAlign=top;spacingLeft=4;spacingRight=4;whiteSpace=wrap;overflow=hidden;rotatable=0;points=[[0,0.5],[1,0.5]];portConstraint=eastwest;" vertex="1" parent="iTRQFy2choHZ9Wb9lK1U-77">
          <mxGeometry y="78" width="440" height="26" as="geometry" />
        </mxCell>
        <mxCell id="iTRQFy2choHZ9Wb9lK1U-81" value="-&amp;nbsp;created_by: string" style="text;html=1;strokeColor=none;fillColor=none;align=left;verticalAlign=top;spacingLeft=4;spacingRight=4;whiteSpace=wrap;overflow=hidden;rotatable=0;points=[[0,0.5],[1,0.5]];portConstraint=eastwest;" vertex="1" parent="iTRQFy2choHZ9Wb9lK1U-77">
          <mxGeometry y="104" width="440" height="26" as="geometry" />
        </mxCell>
        <mxCell id="iTRQFy2choHZ9Wb9lK1U-82" value="-&amp;nbsp;updated_at: datetime" style="text;html=1;strokeColor=none;fillColor=none;align=left;verticalAlign=top;spacingLeft=4;spacingRight=4;whiteSpace=wrap;overflow=hidden;rotatable=0;points=[[0,0.5],[1,0.5]];portConstraint=eastwest;" vertex="1" parent="iTRQFy2choHZ9Wb9lK1U-77">
          <mxGeometry y="130" width="440" height="26" as="geometry" />
        </mxCell>
        <mxCell id="iTRQFy2choHZ9Wb9lK1U-83" value="-&amp;nbsp;updated_by: string" style="text;html=1;strokeColor=none;fillColor=none;align=left;verticalAlign=top;spacingLeft=4;spacingRight=4;whiteSpace=wrap;overflow=hidden;rotatable=0;points=[[0,0.5],[1,0.5]];portConstraint=eastwest;" vertex="1" parent="iTRQFy2choHZ9Wb9lK1U-77">
          <mxGeometry y="156" width="440" height="26" as="geometry" />
        </mxCell>
        <mxCell id="iTRQFy2choHZ9Wb9lK1U-84" value="-&amp;nbsp;deleted_at: datetime" style="text;html=1;strokeColor=none;fillColor=none;align=left;verticalAlign=top;spacingLeft=4;spacingRight=4;whiteSpace=wrap;overflow=hidden;rotatable=0;points=[[0,0.5],[1,0.5]];portConstraint=eastwest;" vertex="1" parent="iTRQFy2choHZ9Wb9lK1U-77">
          <mxGeometry y="182" width="440" height="26" as="geometry" />
        </mxCell>
        <mxCell id="iTRQFy2choHZ9Wb9lK1U-85" value="-&amp;nbsp;deleted_by: string" style="text;html=1;strokeColor=none;fillColor=none;align=left;verticalAlign=top;spacingLeft=4;spacingRight=4;whiteSpace=wrap;overflow=hidden;rotatable=0;points=[[0,0.5],[1,0.5]];portConstraint=eastwest;" vertex="1" parent="iTRQFy2choHZ9Wb9lK1U-77">
          <mxGeometry y="208" width="440" height="26" as="geometry" />
        </mxCell>
        <mxCell id="iTRQFy2choHZ9Wb9lK1U-87" value="" style="line;strokeWidth=1;fillColor=none;align=left;verticalAlign=middle;spacingTop=-1;spacingLeft=3;spacingRight=3;rotatable=0;labelPosition=right;points=[];portConstraint=eastwest;strokeColor=inherit;" vertex="1" parent="iTRQFy2choHZ9Wb9lK1U-77">
          <mxGeometry y="234" width="440" height="30" as="geometry" />
        </mxCell>
        <mxCell id="iTRQFy2choHZ9Wb9lK1U-89" value="+ adicionarCategoria()" style="text;html=1;strokeColor=none;fillColor=none;align=left;verticalAlign=top;spacingLeft=4;spacingRight=4;whiteSpace=wrap;overflow=hidden;rotatable=0;points=[[0,0.5],[1,0.5]];portConstraint=eastwest;" vertex="1" parent="iTRQFy2choHZ9Wb9lK1U-77">
          <mxGeometry y="264" width="440" height="26" as="geometry" />
        </mxCell>
        <mxCell id="iTRQFy2choHZ9Wb9lK1U-90" value="+ getCategoria()" style="text;html=1;strokeColor=none;fillColor=none;align=left;verticalAlign=top;spacingLeft=4;spacingRight=4;whiteSpace=wrap;overflow=hidden;rotatable=0;points=[[0,0.5],[1,0.5]];portConstraint=eastwest;" vertex="1" parent="iTRQFy2choHZ9Wb9lK1U-77">
          <mxGeometry y="290" width="440" height="26" as="geometry" />
        </mxCell>
        <mxCell id="iTRQFy2choHZ9Wb9lK1U-91" value="+ updateCategoria()" style="text;html=1;strokeColor=none;fillColor=none;align=left;verticalAlign=top;spacingLeft=4;spacingRight=4;whiteSpace=wrap;overflow=hidden;rotatable=0;points=[[0,0.5],[1,0.5]];portConstraint=eastwest;" vertex="1" parent="iTRQFy2choHZ9Wb9lK1U-77">
          <mxGeometry y="316" width="440" height="28" as="geometry" />
        </mxCell>
        <mxCell id="iTRQFy2choHZ9Wb9lK1U-92" value="+ deleteCategoria()" style="text;html=1;strokeColor=none;fillColor=none;align=left;verticalAlign=top;spacingLeft=4;spacingRight=4;whiteSpace=wrap;overflow=hidden;rotatable=0;points=[[0,0.5],[1,0.5]];portConstraint=eastwest;" vertex="1" parent="iTRQFy2choHZ9Wb9lK1U-77">
          <mxGeometry y="344" width="440" height="26" as="geometry" />
        </mxCell>
        <mxCell id="iTRQFy2choHZ9Wb9lK1U-140" value="Produto" style="swimlane;fontStyle=1;align=center;verticalAlign=top;childLayout=stackLayout;horizontal=1;startSize=26;horizontalStack=0;resizeParent=1;resizeParentMax=0;resizeLast=0;collapsible=1;marginBottom=0;whiteSpace=wrap;html=1;" vertex="1" parent="1">
          <mxGeometry x="600" y="-440" width="440" height="474" as="geometry" />
        </mxCell>
        <mxCell id="iTRQFy2choHZ9Wb9lK1U-141" value="- id: integer (PK)" style="text;html=1;strokeColor=none;fillColor=none;align=left;verticalAlign=top;spacingLeft=4;spacingRight=4;whiteSpace=wrap;overflow=hidden;rotatable=0;points=[[0,0.5],[1,0.5]];portConstraint=eastwest;" vertex="1" parent="iTRQFy2choHZ9Wb9lK1U-140">
          <mxGeometry y="26" width="440" height="26" as="geometry" />
        </mxCell>
        <mxCell id="iTRQFy2choHZ9Wb9lK1U-142" value="-&amp;nbsp;nome: string" style="text;html=1;strokeColor=none;fillColor=none;align=left;verticalAlign=top;spacingLeft=4;spacingRight=4;whiteSpace=wrap;overflow=hidden;rotatable=0;points=[[0,0.5],[1,0.5]];portConstraint=eastwest;" vertex="1" parent="iTRQFy2choHZ9Wb9lK1U-140">
          <mxGeometry y="52" width="440" height="26" as="geometry" />
        </mxCell>
        <mxCell id="iTRQFy2choHZ9Wb9lK1U-154" value="- descricao: string" style="text;html=1;strokeColor=none;fillColor=none;align=left;verticalAlign=top;spacingLeft=4;spacingRight=4;whiteSpace=wrap;overflow=hidden;rotatable=0;points=[[0,0.5],[1,0.5]];portConstraint=eastwest;" vertex="1" parent="iTRQFy2choHZ9Wb9lK1U-140">
          <mxGeometry y="78" width="440" height="26" as="geometry" />
        </mxCell>
        <mxCell id="iTRQFy2choHZ9Wb9lK1U-155" value="- preco: decimal" style="text;html=1;strokeColor=none;fillColor=none;align=left;verticalAlign=top;spacingLeft=4;spacingRight=4;whiteSpace=wrap;overflow=hidden;rotatable=0;points=[[0,0.5],[1,0.5]];portConstraint=eastwest;" vertex="1" parent="iTRQFy2choHZ9Wb9lK1U-140">
          <mxGeometry y="104" width="440" height="26" as="geometry" />
        </mxCell>
        <mxCell id="iTRQFy2choHZ9Wb9lK1U-157" value="- quantidade: integer" style="text;html=1;strokeColor=none;fillColor=none;align=left;verticalAlign=top;spacingLeft=4;spacingRight=4;whiteSpace=wrap;overflow=hidden;rotatable=0;points=[[0,0.5],[1,0.5]];portConstraint=eastwest;" vertex="1" parent="iTRQFy2choHZ9Wb9lK1U-140">
          <mxGeometry y="130" width="440" height="26" as="geometry" />
        </mxCell>
        <mxCell id="iTRQFy2choHZ9Wb9lK1U-156" value="- id_categoria: integer (FK)" style="text;html=1;strokeColor=none;fillColor=none;align=left;verticalAlign=top;spacingLeft=4;spacingRight=4;whiteSpace=wrap;overflow=hidden;rotatable=0;points=[[0,0.5],[1,0.5]];portConstraint=eastwest;" vertex="1" parent="iTRQFy2choHZ9Wb9lK1U-140">
          <mxGeometry y="156" width="440" height="26" as="geometry" />
        </mxCell>
        <mxCell id="iTRQFy2choHZ9Wb9lK1U-143" value="-&amp;nbsp;created_at: datetime" style="text;html=1;strokeColor=none;fillColor=none;align=left;verticalAlign=top;spacingLeft=4;spacingRight=4;whiteSpace=wrap;overflow=hidden;rotatable=0;points=[[0,0.5],[1,0.5]];portConstraint=eastwest;" vertex="1" parent="iTRQFy2choHZ9Wb9lK1U-140">
          <mxGeometry y="182" width="440" height="26" as="geometry" />
        </mxCell>
        <mxCell id="iTRQFy2choHZ9Wb9lK1U-144" value="-&amp;nbsp;created_by: string" style="text;html=1;strokeColor=none;fillColor=none;align=left;verticalAlign=top;spacingLeft=4;spacingRight=4;whiteSpace=wrap;overflow=hidden;rotatable=0;points=[[0,0.5],[1,0.5]];portConstraint=eastwest;" vertex="1" parent="iTRQFy2choHZ9Wb9lK1U-140">
          <mxGeometry y="208" width="440" height="26" as="geometry" />
        </mxCell>
        <mxCell id="iTRQFy2choHZ9Wb9lK1U-145" value="-&amp;nbsp;updated_at: datetime" style="text;html=1;strokeColor=none;fillColor=none;align=left;verticalAlign=top;spacingLeft=4;spacingRight=4;whiteSpace=wrap;overflow=hidden;rotatable=0;points=[[0,0.5],[1,0.5]];portConstraint=eastwest;" vertex="1" parent="iTRQFy2choHZ9Wb9lK1U-140">
          <mxGeometry y="234" width="440" height="26" as="geometry" />
        </mxCell>
        <mxCell id="iTRQFy2choHZ9Wb9lK1U-146" value="-&amp;nbsp;updated_by: string" style="text;html=1;strokeColor=none;fillColor=none;align=left;verticalAlign=top;spacingLeft=4;spacingRight=4;whiteSpace=wrap;overflow=hidden;rotatable=0;points=[[0,0.5],[1,0.5]];portConstraint=eastwest;" vertex="1" parent="iTRQFy2choHZ9Wb9lK1U-140">
          <mxGeometry y="260" width="440" height="26" as="geometry" />
        </mxCell>
        <mxCell id="iTRQFy2choHZ9Wb9lK1U-147" value="-&amp;nbsp;deleted_at: datetime" style="text;html=1;strokeColor=none;fillColor=none;align=left;verticalAlign=top;spacingLeft=4;spacingRight=4;whiteSpace=wrap;overflow=hidden;rotatable=0;points=[[0,0.5],[1,0.5]];portConstraint=eastwest;" vertex="1" parent="iTRQFy2choHZ9Wb9lK1U-140">
          <mxGeometry y="286" width="440" height="26" as="geometry" />
        </mxCell>
        <mxCell id="iTRQFy2choHZ9Wb9lK1U-148" value="-&amp;nbsp;deleted_by: string" style="text;html=1;strokeColor=none;fillColor=none;align=left;verticalAlign=top;spacingLeft=4;spacingRight=4;whiteSpace=wrap;overflow=hidden;rotatable=0;points=[[0,0.5],[1,0.5]];portConstraint=eastwest;" vertex="1" parent="iTRQFy2choHZ9Wb9lK1U-140">
          <mxGeometry y="312" width="440" height="26" as="geometry" />
        </mxCell>
        <mxCell id="iTRQFy2choHZ9Wb9lK1U-149" value="" style="line;strokeWidth=1;fillColor=none;align=left;verticalAlign=middle;spacingTop=-1;spacingLeft=3;spacingRight=3;rotatable=0;labelPosition=right;points=[];portConstraint=eastwest;strokeColor=inherit;" vertex="1" parent="iTRQFy2choHZ9Wb9lK1U-140">
          <mxGeometry y="338" width="440" height="30" as="geometry" />
        </mxCell>
        <mxCell id="iTRQFy2choHZ9Wb9lK1U-150" value="+ adicionarProduto()" style="text;html=1;strokeColor=none;fillColor=none;align=left;verticalAlign=top;spacingLeft=4;spacingRight=4;whiteSpace=wrap;overflow=hidden;rotatable=0;points=[[0,0.5],[1,0.5]];portConstraint=eastwest;" vertex="1" parent="iTRQFy2choHZ9Wb9lK1U-140">
          <mxGeometry y="368" width="440" height="26" as="geometry" />
        </mxCell>
        <mxCell id="iTRQFy2choHZ9Wb9lK1U-151" value="+ getProduto()" style="text;html=1;strokeColor=none;fillColor=none;align=left;verticalAlign=top;spacingLeft=4;spacingRight=4;whiteSpace=wrap;overflow=hidden;rotatable=0;points=[[0,0.5],[1,0.5]];portConstraint=eastwest;" vertex="1" parent="iTRQFy2choHZ9Wb9lK1U-140">
          <mxGeometry y="394" width="440" height="26" as="geometry" />
        </mxCell>
        <mxCell id="iTRQFy2choHZ9Wb9lK1U-152" value="+ updateProduto()" style="text;html=1;strokeColor=none;fillColor=none;align=left;verticalAlign=top;spacingLeft=4;spacingRight=4;whiteSpace=wrap;overflow=hidden;rotatable=0;points=[[0,0.5],[1,0.5]];portConstraint=eastwest;" vertex="1" parent="iTRQFy2choHZ9Wb9lK1U-140">
          <mxGeometry y="420" width="440" height="28" as="geometry" />
        </mxCell>
        <mxCell id="iTRQFy2choHZ9Wb9lK1U-153" value="+ deleteProduto()" style="text;html=1;strokeColor=none;fillColor=none;align=left;verticalAlign=top;spacingLeft=4;spacingRight=4;whiteSpace=wrap;overflow=hidden;rotatable=0;points=[[0,0.5],[1,0.5]];portConstraint=eastwest;" vertex="1" parent="iTRQFy2choHZ9Wb9lK1U-140">
          <mxGeometry y="448" width="440" height="26" as="geometry" />
        </mxCell>
        <mxCell id="iTRQFy2choHZ9Wb9lK1U-158" value="Usuário" style="swimlane;fontStyle=1;align=center;verticalAlign=top;childLayout=stackLayout;horizontal=1;startSize=26;horizontalStack=0;resizeParent=1;resizeParentMax=0;resizeLast=0;collapsible=1;marginBottom=0;whiteSpace=wrap;html=1;" vertex="1" parent="1">
          <mxGeometry x="120" y="-440" width="440" height="656" as="geometry" />
        </mxCell>
        <mxCell id="iTRQFy2choHZ9Wb9lK1U-159" value="- id: integer (PK)" style="text;html=1;strokeColor=none;fillColor=none;align=left;verticalAlign=top;spacingLeft=4;spacingRight=4;whiteSpace=wrap;overflow=hidden;rotatable=0;points=[[0,0.5],[1,0.5]];portConstraint=eastwest;" vertex="1" parent="iTRQFy2choHZ9Wb9lK1U-158">
          <mxGeometry y="26" width="440" height="26" as="geometry" />
        </mxCell>
        <mxCell id="iTRQFy2choHZ9Wb9lK1U-160" value="-&amp;nbsp;nome: string" style="text;html=1;strokeColor=none;fillColor=none;align=left;verticalAlign=top;spacingLeft=4;spacingRight=4;whiteSpace=wrap;overflow=hidden;rotatable=0;points=[[0,0.5],[1,0.5]];portConstraint=eastwest;" vertex="1" parent="iTRQFy2choHZ9Wb9lK1U-158">
          <mxGeometry y="52" width="440" height="26" as="geometry" />
        </mxCell>
        <mxCell id="iTRQFy2choHZ9Wb9lK1U-161" value="-&amp;nbsp;numero_contato&lt;span style=&quot;background-color: initial;&quot;&gt;: string&lt;/span&gt;" style="text;html=1;strokeColor=none;fillColor=none;align=left;verticalAlign=top;spacingLeft=4;spacingRight=4;whiteSpace=wrap;overflow=hidden;rotatable=0;points=[[0,0.5],[1,0.5]];portConstraint=eastwest;" vertex="1" parent="iTRQFy2choHZ9Wb9lK1U-158">
          <mxGeometry y="78" width="440" height="26" as="geometry" />
        </mxCell>
        <mxCell id="iTRQFy2choHZ9Wb9lK1U-163" value="-&amp;nbsp;email&lt;span style=&quot;background-color: initial;&quot;&gt;: string&lt;/span&gt;" style="text;html=1;strokeColor=none;fillColor=none;align=left;verticalAlign=top;spacingLeft=4;spacingRight=4;whiteSpace=wrap;overflow=hidden;rotatable=0;points=[[0,0.5],[1,0.5]];portConstraint=eastwest;" vertex="1" parent="iTRQFy2choHZ9Wb9lK1U-158">
          <mxGeometry y="104" width="440" height="26" as="geometry" />
        </mxCell>
        <mxCell id="iTRQFy2choHZ9Wb9lK1U-164" value="-&amp;nbsp;senha&lt;span style=&quot;background-color: initial;&quot;&gt;: string&lt;/span&gt;" style="text;html=1;strokeColor=none;fillColor=none;align=left;verticalAlign=top;spacingLeft=4;spacingRight=4;whiteSpace=wrap;overflow=hidden;rotatable=0;points=[[0,0.5],[1,0.5]];portConstraint=eastwest;" vertex="1" parent="iTRQFy2choHZ9Wb9lK1U-158">
          <mxGeometry y="130" width="440" height="26" as="geometry" />
        </mxCell>
        <mxCell id="iTRQFy2choHZ9Wb9lK1U-176" value="-&amp;nbsp;status&lt;span style=&quot;background-color: initial;&quot;&gt;: string&lt;/span&gt;" style="text;html=1;strokeColor=none;fillColor=none;align=left;verticalAlign=top;spacingLeft=4;spacingRight=4;whiteSpace=wrap;overflow=hidden;rotatable=0;points=[[0,0.5],[1,0.5]];portConstraint=eastwest;" vertex="1" parent="iTRQFy2choHZ9Wb9lK1U-158">
          <mxGeometry y="156" width="440" height="26" as="geometry" />
        </mxCell>
        <mxCell id="iTRQFy2choHZ9Wb9lK1U-177" value="- role&lt;span style=&quot;background-color: initial;&quot;&gt;: string&lt;/span&gt;" style="text;html=1;strokeColor=none;fillColor=none;align=left;verticalAlign=top;spacingLeft=4;spacingRight=4;whiteSpace=wrap;overflow=hidden;rotatable=0;points=[[0,0.5],[1,0.5]];portConstraint=eastwest;" vertex="1" parent="iTRQFy2choHZ9Wb9lK1U-158">
          <mxGeometry y="182" width="440" height="26" as="geometry" />
        </mxCell>
        <mxCell id="iTRQFy2choHZ9Wb9lK1U-178" value="- data_expiracao&lt;span style=&quot;background-color: initial;&quot;&gt;: datetime&lt;/span&gt;" style="text;html=1;strokeColor=none;fillColor=none;align=left;verticalAlign=top;spacingLeft=4;spacingRight=4;whiteSpace=wrap;overflow=hidden;rotatable=0;points=[[0,0.5],[1,0.5]];portConstraint=eastwest;" vertex="1" parent="iTRQFy2choHZ9Wb9lK1U-158">
          <mxGeometry y="208" width="440" height="26" as="geometry" />
        </mxCell>
        <mxCell id="iTRQFy2choHZ9Wb9lK1U-165" value="-&amp;nbsp;created_at: datetime" style="text;html=1;strokeColor=none;fillColor=none;align=left;verticalAlign=top;spacingLeft=4;spacingRight=4;whiteSpace=wrap;overflow=hidden;rotatable=0;points=[[0,0.5],[1,0.5]];portConstraint=eastwest;" vertex="1" parent="iTRQFy2choHZ9Wb9lK1U-158">
          <mxGeometry y="234" width="440" height="26" as="geometry" />
        </mxCell>
        <mxCell id="iTRQFy2choHZ9Wb9lK1U-166" value="-&amp;nbsp;created_by: string" style="text;html=1;strokeColor=none;fillColor=none;align=left;verticalAlign=top;spacingLeft=4;spacingRight=4;whiteSpace=wrap;overflow=hidden;rotatable=0;points=[[0,0.5],[1,0.5]];portConstraint=eastwest;" vertex="1" parent="iTRQFy2choHZ9Wb9lK1U-158">
          <mxGeometry y="260" width="440" height="26" as="geometry" />
        </mxCell>
        <mxCell id="iTRQFy2choHZ9Wb9lK1U-167" value="-&amp;nbsp;updated_at: datetime" style="text;html=1;strokeColor=none;fillColor=none;align=left;verticalAlign=top;spacingLeft=4;spacingRight=4;whiteSpace=wrap;overflow=hidden;rotatable=0;points=[[0,0.5],[1,0.5]];portConstraint=eastwest;" vertex="1" parent="iTRQFy2choHZ9Wb9lK1U-158">
          <mxGeometry y="286" width="440" height="26" as="geometry" />
        </mxCell>
        <mxCell id="iTRQFy2choHZ9Wb9lK1U-168" value="-&amp;nbsp;updated_by: string" style="text;html=1;strokeColor=none;fillColor=none;align=left;verticalAlign=top;spacingLeft=4;spacingRight=4;whiteSpace=wrap;overflow=hidden;rotatable=0;points=[[0,0.5],[1,0.5]];portConstraint=eastwest;" vertex="1" parent="iTRQFy2choHZ9Wb9lK1U-158">
          <mxGeometry y="312" width="440" height="26" as="geometry" />
        </mxCell>
        <mxCell id="iTRQFy2choHZ9Wb9lK1U-169" value="-&amp;nbsp;deleted_at: datetime" style="text;html=1;strokeColor=none;fillColor=none;align=left;verticalAlign=top;spacingLeft=4;spacingRight=4;whiteSpace=wrap;overflow=hidden;rotatable=0;points=[[0,0.5],[1,0.5]];portConstraint=eastwest;" vertex="1" parent="iTRQFy2choHZ9Wb9lK1U-158">
          <mxGeometry y="338" width="440" height="26" as="geometry" />
        </mxCell>
        <mxCell id="iTRQFy2choHZ9Wb9lK1U-170" value="-&amp;nbsp;deleted_by: string" style="text;html=1;strokeColor=none;fillColor=none;align=left;verticalAlign=top;spacingLeft=4;spacingRight=4;whiteSpace=wrap;overflow=hidden;rotatable=0;points=[[0,0.5],[1,0.5]];portConstraint=eastwest;" vertex="1" parent="iTRQFy2choHZ9Wb9lK1U-158">
          <mxGeometry y="364" width="440" height="26" as="geometry" />
        </mxCell>
        <mxCell id="iTRQFy2choHZ9Wb9lK1U-171" value="" style="line;strokeWidth=1;fillColor=none;align=left;verticalAlign=middle;spacingTop=-1;spacingLeft=3;spacingRight=3;rotatable=0;labelPosition=right;points=[];portConstraint=eastwest;strokeColor=inherit;" vertex="1" parent="iTRQFy2choHZ9Wb9lK1U-158">
          <mxGeometry y="390" width="440" height="30" as="geometry" />
        </mxCell>
        <mxCell id="iTRQFy2choHZ9Wb9lK1U-172" value="+&amp;nbsp;cadastrarUsuarios&lt;span style=&quot;background-color: initial;&quot;&gt;()&lt;/span&gt;" style="text;html=1;strokeColor=none;fillColor=none;align=left;verticalAlign=top;spacingLeft=4;spacingRight=4;whiteSpace=wrap;overflow=hidden;rotatable=0;points=[[0,0.5],[1,0.5]];portConstraint=eastwest;" vertex="1" parent="iTRQFy2choHZ9Wb9lK1U-158">
          <mxGeometry y="420" width="440" height="26" as="geometry" />
        </mxCell>
        <mxCell id="iTRQFy2choHZ9Wb9lK1U-173" value="+&amp;nbsp;login&lt;span style=&quot;background-color: initial;&quot;&gt;()&lt;/span&gt;" style="text;html=1;strokeColor=none;fillColor=none;align=left;verticalAlign=top;spacingLeft=4;spacingRight=4;whiteSpace=wrap;overflow=hidden;rotatable=0;points=[[0,0.5],[1,0.5]];portConstraint=eastwest;" vertex="1" parent="iTRQFy2choHZ9Wb9lK1U-158">
          <mxGeometry y="446" width="440" height="26" as="geometry" />
        </mxCell>
        <mxCell id="iTRQFy2choHZ9Wb9lK1U-174" value="+&amp;nbsp;esqueciSenha&lt;span style=&quot;background-color: initial;&quot;&gt;()&lt;/span&gt;" style="text;html=1;strokeColor=none;fillColor=none;align=left;verticalAlign=top;spacingLeft=4;spacingRight=4;whiteSpace=wrap;overflow=hidden;rotatable=0;points=[[0,0.5],[1,0.5]];portConstraint=eastwest;" vertex="1" parent="iTRQFy2choHZ9Wb9lK1U-158">
          <mxGeometry y="472" width="440" height="28" as="geometry" />
        </mxCell>
        <mxCell id="iTRQFy2choHZ9Wb9lK1U-180" value="+&amp;nbsp;get&lt;span style=&quot;background-color: initial;&quot;&gt;()&lt;/span&gt;" style="text;html=1;strokeColor=none;fillColor=none;align=left;verticalAlign=top;spacingLeft=4;spacingRight=4;whiteSpace=wrap;overflow=hidden;rotatable=0;points=[[0,0.5],[1,0.5]];portConstraint=eastwest;" vertex="1" parent="iTRQFy2choHZ9Wb9lK1U-158">
          <mxGeometry y="500" width="440" height="26" as="geometry" />
        </mxCell>
        <mxCell id="iTRQFy2choHZ9Wb9lK1U-181" value="+&amp;nbsp;updateStatusERole&lt;span style=&quot;background-color: initial;&quot;&gt;()&lt;/span&gt;" style="text;html=1;strokeColor=none;fillColor=none;align=left;verticalAlign=top;spacingLeft=4;spacingRight=4;whiteSpace=wrap;overflow=hidden;rotatable=0;points=[[0,0.5],[1,0.5]];portConstraint=eastwest;" vertex="1" parent="iTRQFy2choHZ9Wb9lK1U-158">
          <mxGeometry y="526" width="440" height="26" as="geometry" />
        </mxCell>
        <mxCell id="iTRQFy2choHZ9Wb9lK1U-182" value="+&amp;nbsp;updateUser&lt;span style=&quot;background-color: initial;&quot;&gt;()&lt;/span&gt;" style="text;html=1;strokeColor=none;fillColor=none;align=left;verticalAlign=top;spacingLeft=4;spacingRight=4;whiteSpace=wrap;overflow=hidden;rotatable=0;points=[[0,0.5],[1,0.5]];portConstraint=eastwest;" vertex="1" parent="iTRQFy2choHZ9Wb9lK1U-158">
          <mxGeometry y="552" width="440" height="26" as="geometry" />
        </mxCell>
        <mxCell id="iTRQFy2choHZ9Wb9lK1U-183" value="+&amp;nbsp;checarToken&lt;span style=&quot;background-color: initial;&quot;&gt;()&lt;/span&gt;" style="text;html=1;strokeColor=none;fillColor=none;align=left;verticalAlign=top;spacingLeft=4;spacingRight=4;whiteSpace=wrap;overflow=hidden;rotatable=0;points=[[0,0.5],[1,0.5]];portConstraint=eastwest;" vertex="1" parent="iTRQFy2choHZ9Wb9lK1U-158">
          <mxGeometry y="578" width="440" height="26" as="geometry" />
        </mxCell>
        <mxCell id="iTRQFy2choHZ9Wb9lK1U-179" value="+&amp;nbsp;alterarSenha&lt;span style=&quot;background-color: initial;&quot;&gt;()&lt;/span&gt;" style="text;html=1;strokeColor=none;fillColor=none;align=left;verticalAlign=top;spacingLeft=4;spacingRight=4;whiteSpace=wrap;overflow=hidden;rotatable=0;points=[[0,0.5],[1,0.5]];portConstraint=eastwest;" vertex="1" parent="iTRQFy2choHZ9Wb9lK1U-158">
          <mxGeometry y="604" width="440" height="26" as="geometry" />
        </mxCell>
        <mxCell id="iTRQFy2choHZ9Wb9lK1U-175" value="+&amp;nbsp;deleteUser&lt;span style=&quot;background-color: initial;&quot;&gt;()&lt;/span&gt;" style="text;html=1;strokeColor=none;fillColor=none;align=left;verticalAlign=top;spacingLeft=4;spacingRight=4;whiteSpace=wrap;overflow=hidden;rotatable=0;points=[[0,0.5],[1,0.5]];portConstraint=eastwest;" vertex="1" parent="iTRQFy2choHZ9Wb9lK1U-158">
          <mxGeometry y="630" width="440" height="26" as="geometry" />
        </mxCell>
        <mxCell id="iTRQFy2choHZ9Wb9lK1U-187" value="Fornecedor" style="swimlane;fontStyle=1;align=center;verticalAlign=top;childLayout=stackLayout;horizontal=1;startSize=26;horizontalStack=0;resizeParent=1;resizeParentMax=0;resizeLast=0;collapsible=1;marginBottom=0;whiteSpace=wrap;html=1;" vertex="1" parent="1">
          <mxGeometry x="120" y="260" width="440" height="422" as="geometry" />
        </mxCell>
        <mxCell id="iTRQFy2choHZ9Wb9lK1U-188" value="- id: integer (PK)" style="text;html=1;strokeColor=none;fillColor=none;align=left;verticalAlign=top;spacingLeft=4;spacingRight=4;whiteSpace=wrap;overflow=hidden;rotatable=0;points=[[0,0.5],[1,0.5]];portConstraint=eastwest;" vertex="1" parent="iTRQFy2choHZ9Wb9lK1U-187">
          <mxGeometry y="26" width="440" height="26" as="geometry" />
        </mxCell>
        <mxCell id="iTRQFy2choHZ9Wb9lK1U-189" value="-&amp;nbsp;nome: string" style="text;html=1;strokeColor=none;fillColor=none;align=left;verticalAlign=top;spacingLeft=4;spacingRight=4;whiteSpace=wrap;overflow=hidden;rotatable=0;points=[[0,0.5],[1,0.5]];portConstraint=eastwest;" vertex="1" parent="iTRQFy2choHZ9Wb9lK1U-187">
          <mxGeometry y="52" width="440" height="26" as="geometry" />
        </mxCell>
        <mxCell id="iTRQFy2choHZ9Wb9lK1U-190" value="- endereco: string" style="text;html=1;strokeColor=none;fillColor=none;align=left;verticalAlign=top;spacingLeft=4;spacingRight=4;whiteSpace=wrap;overflow=hidden;rotatable=0;points=[[0,0.5],[1,0.5]];portConstraint=eastwest;" vertex="1" parent="iTRQFy2choHZ9Wb9lK1U-187">
          <mxGeometry y="78" width="440" height="26" as="geometry" />
        </mxCell>
        <mxCell id="iTRQFy2choHZ9Wb9lK1U-191" value="- telefone: string" style="text;html=1;strokeColor=none;fillColor=none;align=left;verticalAlign=top;spacingLeft=4;spacingRight=4;whiteSpace=wrap;overflow=hidden;rotatable=0;points=[[0,0.5],[1,0.5]];portConstraint=eastwest;" vertex="1" parent="iTRQFy2choHZ9Wb9lK1U-187">
          <mxGeometry y="104" width="440" height="26" as="geometry" />
        </mxCell>
        <mxCell id="iTRQFy2choHZ9Wb9lK1U-192" value="-&amp;nbsp;created_at: datetime" style="text;html=1;strokeColor=none;fillColor=none;align=left;verticalAlign=top;spacingLeft=4;spacingRight=4;whiteSpace=wrap;overflow=hidden;rotatable=0;points=[[0,0.5],[1,0.5]];portConstraint=eastwest;" vertex="1" parent="iTRQFy2choHZ9Wb9lK1U-187">
          <mxGeometry y="130" width="440" height="26" as="geometry" />
        </mxCell>
        <mxCell id="iTRQFy2choHZ9Wb9lK1U-193" value="-&amp;nbsp;created_by: string" style="text;html=1;strokeColor=none;fillColor=none;align=left;verticalAlign=top;spacingLeft=4;spacingRight=4;whiteSpace=wrap;overflow=hidden;rotatable=0;points=[[0,0.5],[1,0.5]];portConstraint=eastwest;" vertex="1" parent="iTRQFy2choHZ9Wb9lK1U-187">
          <mxGeometry y="156" width="440" height="26" as="geometry" />
        </mxCell>
        <mxCell id="iTRQFy2choHZ9Wb9lK1U-194" value="-&amp;nbsp;updated_at: datetime" style="text;html=1;strokeColor=none;fillColor=none;align=left;verticalAlign=top;spacingLeft=4;spacingRight=4;whiteSpace=wrap;overflow=hidden;rotatable=0;points=[[0,0.5],[1,0.5]];portConstraint=eastwest;" vertex="1" parent="iTRQFy2choHZ9Wb9lK1U-187">
          <mxGeometry y="182" width="440" height="26" as="geometry" />
        </mxCell>
        <mxCell id="iTRQFy2choHZ9Wb9lK1U-195" value="-&amp;nbsp;updated_by: string" style="text;html=1;strokeColor=none;fillColor=none;align=left;verticalAlign=top;spacingLeft=4;spacingRight=4;whiteSpace=wrap;overflow=hidden;rotatable=0;points=[[0,0.5],[1,0.5]];portConstraint=eastwest;" vertex="1" parent="iTRQFy2choHZ9Wb9lK1U-187">
          <mxGeometry y="208" width="440" height="26" as="geometry" />
        </mxCell>
        <mxCell id="iTRQFy2choHZ9Wb9lK1U-196" value="-&amp;nbsp;deleted_at: datetime" style="text;html=1;strokeColor=none;fillColor=none;align=left;verticalAlign=top;spacingLeft=4;spacingRight=4;whiteSpace=wrap;overflow=hidden;rotatable=0;points=[[0,0.5],[1,0.5]];portConstraint=eastwest;" vertex="1" parent="iTRQFy2choHZ9Wb9lK1U-187">
          <mxGeometry y="234" width="440" height="26" as="geometry" />
        </mxCell>
        <mxCell id="iTRQFy2choHZ9Wb9lK1U-197" value="-&amp;nbsp;deleted_by: string" style="text;html=1;strokeColor=none;fillColor=none;align=left;verticalAlign=top;spacingLeft=4;spacingRight=4;whiteSpace=wrap;overflow=hidden;rotatable=0;points=[[0,0.5],[1,0.5]];portConstraint=eastwest;" vertex="1" parent="iTRQFy2choHZ9Wb9lK1U-187">
          <mxGeometry y="260" width="440" height="26" as="geometry" />
        </mxCell>
        <mxCell id="iTRQFy2choHZ9Wb9lK1U-198" value="" style="line;strokeWidth=1;fillColor=none;align=left;verticalAlign=middle;spacingTop=-1;spacingLeft=3;spacingRight=3;rotatable=0;labelPosition=right;points=[];portConstraint=eastwest;strokeColor=inherit;" vertex="1" parent="iTRQFy2choHZ9Wb9lK1U-187">
          <mxGeometry y="286" width="440" height="30" as="geometry" />
        </mxCell>
        <mxCell id="iTRQFy2choHZ9Wb9lK1U-199" value="+ adicionarFornecedor()" style="text;html=1;strokeColor=none;fillColor=none;align=left;verticalAlign=top;spacingLeft=4;spacingRight=4;whiteSpace=wrap;overflow=hidden;rotatable=0;points=[[0,0.5],[1,0.5]];portConstraint=eastwest;" vertex="1" parent="iTRQFy2choHZ9Wb9lK1U-187">
          <mxGeometry y="316" width="440" height="26" as="geometry" />
        </mxCell>
        <mxCell id="iTRQFy2choHZ9Wb9lK1U-200" value="+ getFornecedor()" style="text;html=1;strokeColor=none;fillColor=none;align=left;verticalAlign=top;spacingLeft=4;spacingRight=4;whiteSpace=wrap;overflow=hidden;rotatable=0;points=[[0,0.5],[1,0.5]];portConstraint=eastwest;" vertex="1" parent="iTRQFy2choHZ9Wb9lK1U-187">
          <mxGeometry y="342" width="440" height="26" as="geometry" />
        </mxCell>
        <mxCell id="iTRQFy2choHZ9Wb9lK1U-201" value="+ updateFornecedor()" style="text;html=1;strokeColor=none;fillColor=none;align=left;verticalAlign=top;spacingLeft=4;spacingRight=4;whiteSpace=wrap;overflow=hidden;rotatable=0;points=[[0,0.5],[1,0.5]];portConstraint=eastwest;" vertex="1" parent="iTRQFy2choHZ9Wb9lK1U-187">
          <mxGeometry y="368" width="440" height="28" as="geometry" />
        </mxCell>
        <mxCell id="iTRQFy2choHZ9Wb9lK1U-202" value="+ deleteFornecedor()" style="text;html=1;strokeColor=none;fillColor=none;align=left;verticalAlign=top;spacingLeft=4;spacingRight=4;whiteSpace=wrap;overflow=hidden;rotatable=0;points=[[0,0.5],[1,0.5]];portConstraint=eastwest;" vertex="1" parent="iTRQFy2choHZ9Wb9lK1U-187">
          <mxGeometry y="396" width="440" height="26" as="geometry" />
        </mxCell>
        <mxCell id="iTRQFy2choHZ9Wb9lK1U-203" value="Entrada Estoque" style="swimlane;fontStyle=1;align=center;verticalAlign=top;childLayout=stackLayout;horizontal=1;startSize=26;horizontalStack=0;resizeParent=1;resizeParentMax=0;resizeLast=0;collapsible=1;marginBottom=0;whiteSpace=wrap;html=1;" vertex="1" parent="1">
          <mxGeometry x="600" y="480" width="440" height="292" as="geometry" />
        </mxCell>
        <mxCell id="iTRQFy2choHZ9Wb9lK1U-204" value="- id: integer (PK)" style="text;html=1;strokeColor=none;fillColor=none;align=left;verticalAlign=top;spacingLeft=4;spacingRight=4;whiteSpace=wrap;overflow=hidden;rotatable=0;points=[[0,0.5],[1,0.5]];portConstraint=eastwest;" vertex="1" parent="iTRQFy2choHZ9Wb9lK1U-203">
          <mxGeometry y="26" width="440" height="26" as="geometry" />
        </mxCell>
        <mxCell id="iTRQFy2choHZ9Wb9lK1U-205" value="- data: datetime" style="text;html=1;strokeColor=none;fillColor=none;align=left;verticalAlign=top;spacingLeft=4;spacingRight=4;whiteSpace=wrap;overflow=hidden;rotatable=0;points=[[0,0.5],[1,0.5]];portConstraint=eastwest;" vertex="1" parent="iTRQFy2choHZ9Wb9lK1U-203">
          <mxGeometry y="52" width="440" height="26" as="geometry" />
        </mxCell>
        <mxCell id="iTRQFy2choHZ9Wb9lK1U-206" value="- quantidade: integer" style="text;html=1;strokeColor=none;fillColor=none;align=left;verticalAlign=top;spacingLeft=4;spacingRight=4;whiteSpace=wrap;overflow=hidden;rotatable=0;points=[[0,0.5],[1,0.5]];portConstraint=eastwest;" vertex="1" parent="iTRQFy2choHZ9Wb9lK1U-203">
          <mxGeometry y="78" width="440" height="26" as="geometry" />
        </mxCell>
        <mxCell id="iTRQFy2choHZ9Wb9lK1U-235" value="- id_produto: integer (FK)" style="text;html=1;strokeColor=none;fillColor=none;align=left;verticalAlign=top;spacingLeft=4;spacingRight=4;whiteSpace=wrap;overflow=hidden;rotatable=0;points=[[0,0.5],[1,0.5]];portConstraint=eastwest;" vertex="1" parent="iTRQFy2choHZ9Wb9lK1U-203">
          <mxGeometry y="104" width="440" height="26" as="geometry" />
        </mxCell>
        <mxCell id="iTRQFy2choHZ9Wb9lK1U-236" value="- id_fornecedor: integer (FK)" style="text;html=1;strokeColor=none;fillColor=none;align=left;verticalAlign=top;spacingLeft=4;spacingRight=4;whiteSpace=wrap;overflow=hidden;rotatable=0;points=[[0,0.5],[1,0.5]];portConstraint=eastwest;" vertex="1" parent="iTRQFy2choHZ9Wb9lK1U-203">
          <mxGeometry y="130" width="440" height="26" as="geometry" />
        </mxCell>
        <mxCell id="iTRQFy2choHZ9Wb9lK1U-214" value="" style="line;strokeWidth=1;fillColor=none;align=left;verticalAlign=middle;spacingTop=-1;spacingLeft=3;spacingRight=3;rotatable=0;labelPosition=right;points=[];portConstraint=eastwest;strokeColor=inherit;" vertex="1" parent="iTRQFy2choHZ9Wb9lK1U-203">
          <mxGeometry y="156" width="440" height="30" as="geometry" />
        </mxCell>
        <mxCell id="iTRQFy2choHZ9Wb9lK1U-215" value="+ adicionarEntradaEstoque()" style="text;html=1;strokeColor=none;fillColor=none;align=left;verticalAlign=top;spacingLeft=4;spacingRight=4;whiteSpace=wrap;overflow=hidden;rotatable=0;points=[[0,0.5],[1,0.5]];portConstraint=eastwest;" vertex="1" parent="iTRQFy2choHZ9Wb9lK1U-203">
          <mxGeometry y="186" width="440" height="26" as="geometry" />
        </mxCell>
        <mxCell id="iTRQFy2choHZ9Wb9lK1U-216" value="+ getEntradaEstoque()" style="text;html=1;strokeColor=none;fillColor=none;align=left;verticalAlign=top;spacingLeft=4;spacingRight=4;whiteSpace=wrap;overflow=hidden;rotatable=0;points=[[0,0.5],[1,0.5]];portConstraint=eastwest;" vertex="1" parent="iTRQFy2choHZ9Wb9lK1U-203">
          <mxGeometry y="212" width="440" height="26" as="geometry" />
        </mxCell>
        <mxCell id="iTRQFy2choHZ9Wb9lK1U-217" value="+ updateEntradaEstoque()" style="text;html=1;strokeColor=none;fillColor=none;align=left;verticalAlign=top;spacingLeft=4;spacingRight=4;whiteSpace=wrap;overflow=hidden;rotatable=0;points=[[0,0.5],[1,0.5]];portConstraint=eastwest;" vertex="1" parent="iTRQFy2choHZ9Wb9lK1U-203">
          <mxGeometry y="238" width="440" height="28" as="geometry" />
        </mxCell>
        <mxCell id="iTRQFy2choHZ9Wb9lK1U-218" value="+ deleteEntradaEstoque()" style="text;html=1;strokeColor=none;fillColor=none;align=left;verticalAlign=top;spacingLeft=4;spacingRight=4;whiteSpace=wrap;overflow=hidden;rotatable=0;points=[[0,0.5],[1,0.5]];portConstraint=eastwest;" vertex="1" parent="iTRQFy2choHZ9Wb9lK1U-203">
          <mxGeometry y="266" width="440" height="26" as="geometry" />
        </mxCell>
        <mxCell id="iTRQFy2choHZ9Wb9lK1U-237" value="Saída Estoque" style="swimlane;fontStyle=1;align=center;verticalAlign=top;childLayout=stackLayout;horizontal=1;startSize=26;horizontalStack=0;resizeParent=1;resizeParentMax=0;resizeLast=0;collapsible=1;marginBottom=0;whiteSpace=wrap;html=1;" vertex="1" parent="1">
          <mxGeometry x="120" y="720" width="440" height="292" as="geometry" />
        </mxCell>
        <mxCell id="iTRQFy2choHZ9Wb9lK1U-238" value="- id: integer (PK)" style="text;html=1;strokeColor=none;fillColor=none;align=left;verticalAlign=top;spacingLeft=4;spacingRight=4;whiteSpace=wrap;overflow=hidden;rotatable=0;points=[[0,0.5],[1,0.5]];portConstraint=eastwest;" vertex="1" parent="iTRQFy2choHZ9Wb9lK1U-237">
          <mxGeometry y="26" width="440" height="26" as="geometry" />
        </mxCell>
        <mxCell id="iTRQFy2choHZ9Wb9lK1U-239" value="- data: datetime" style="text;html=1;strokeColor=none;fillColor=none;align=left;verticalAlign=top;spacingLeft=4;spacingRight=4;whiteSpace=wrap;overflow=hidden;rotatable=0;points=[[0,0.5],[1,0.5]];portConstraint=eastwest;" vertex="1" parent="iTRQFy2choHZ9Wb9lK1U-237">
          <mxGeometry y="52" width="440" height="26" as="geometry" />
        </mxCell>
        <mxCell id="iTRQFy2choHZ9Wb9lK1U-240" value="- quantidade: integer" style="text;html=1;strokeColor=none;fillColor=none;align=left;verticalAlign=top;spacingLeft=4;spacingRight=4;whiteSpace=wrap;overflow=hidden;rotatable=0;points=[[0,0.5],[1,0.5]];portConstraint=eastwest;" vertex="1" parent="iTRQFy2choHZ9Wb9lK1U-237">
          <mxGeometry y="78" width="440" height="26" as="geometry" />
        </mxCell>
        <mxCell id="iTRQFy2choHZ9Wb9lK1U-241" value="- id_produto: integer (FK)" style="text;html=1;strokeColor=none;fillColor=none;align=left;verticalAlign=top;spacingLeft=4;spacingRight=4;whiteSpace=wrap;overflow=hidden;rotatable=0;points=[[0,0.5],[1,0.5]];portConstraint=eastwest;" vertex="1" parent="iTRQFy2choHZ9Wb9lK1U-237">
          <mxGeometry y="104" width="440" height="26" as="geometry" />
        </mxCell>
        <mxCell id="iTRQFy2choHZ9Wb9lK1U-242" value="- id_user: integer (FK)" style="text;html=1;strokeColor=none;fillColor=none;align=left;verticalAlign=top;spacingLeft=4;spacingRight=4;whiteSpace=wrap;overflow=hidden;rotatable=0;points=[[0,0.5],[1,0.5]];portConstraint=eastwest;" vertex="1" parent="iTRQFy2choHZ9Wb9lK1U-237">
          <mxGeometry y="130" width="440" height="26" as="geometry" />
        </mxCell>
        <mxCell id="iTRQFy2choHZ9Wb9lK1U-249" value="" style="line;strokeWidth=1;fillColor=none;align=left;verticalAlign=middle;spacingTop=-1;spacingLeft=3;spacingRight=3;rotatable=0;labelPosition=right;points=[];portConstraint=eastwest;strokeColor=inherit;" vertex="1" parent="iTRQFy2choHZ9Wb9lK1U-237">
          <mxGeometry y="156" width="440" height="30" as="geometry" />
        </mxCell>
        <mxCell id="iTRQFy2choHZ9Wb9lK1U-250" value="+ adicionarSaidaEstoque()" style="text;html=1;strokeColor=none;fillColor=none;align=left;verticalAlign=top;spacingLeft=4;spacingRight=4;whiteSpace=wrap;overflow=hidden;rotatable=0;points=[[0,0.5],[1,0.5]];portConstraint=eastwest;" vertex="1" parent="iTRQFy2choHZ9Wb9lK1U-237">
          <mxGeometry y="186" width="440" height="26" as="geometry" />
        </mxCell>
        <mxCell id="iTRQFy2choHZ9Wb9lK1U-251" value="+ getSaidaEstoque()" style="text;html=1;strokeColor=none;fillColor=none;align=left;verticalAlign=top;spacingLeft=4;spacingRight=4;whiteSpace=wrap;overflow=hidden;rotatable=0;points=[[0,0.5],[1,0.5]];portConstraint=eastwest;" vertex="1" parent="iTRQFy2choHZ9Wb9lK1U-237">
          <mxGeometry y="212" width="440" height="26" as="geometry" />
        </mxCell>
        <mxCell id="iTRQFy2choHZ9Wb9lK1U-252" value="+ updateSaidaEstoque()" style="text;html=1;strokeColor=none;fillColor=none;align=left;verticalAlign=top;spacingLeft=4;spacingRight=4;whiteSpace=wrap;overflow=hidden;rotatable=0;points=[[0,0.5],[1,0.5]];portConstraint=eastwest;" vertex="1" parent="iTRQFy2choHZ9Wb9lK1U-237">
          <mxGeometry y="238" width="440" height="28" as="geometry" />
        </mxCell>
        <mxCell id="iTRQFy2choHZ9Wb9lK1U-253" value="+ deleteSaidaEstoque()" style="text;html=1;strokeColor=none;fillColor=none;align=left;verticalAlign=top;spacingLeft=4;spacingRight=4;whiteSpace=wrap;overflow=hidden;rotatable=0;points=[[0,0.5],[1,0.5]];portConstraint=eastwest;" vertex="1" parent="iTRQFy2choHZ9Wb9lK1U-237">
          <mxGeometry y="266" width="440" height="26" as="geometry" />
        </mxCell>
      </root>
    </mxGraphModel>
  </diagram>
</mxfile>
